<?xml version="1.0" standalone="no"?>
<!DOCTYPE svg PUBLIC "-//W3C//DTD SVG 20010904//EN"
 "http://www.w3.org/TR/2001/REC-SVG-20010904/DTD/svg10.dtd">
<svg version="1.0" xmlns="http://www.w3.org/2000/svg"
 width="300.000000pt" height="103.000000pt" viewBox="0 0 300.000000 103.000000"
 preserveAspectRatio="xMidYMid meet">
<metadata>
Created by potrace 1.10, written by Peter Selinger 2001-2011
</metadata>
<g transform="translate(0.000000,103.000000) scale(0.050000,-0.050000)"
fill="#ecf2f4" stroke="none">
<path d="M321 1985 c-408 -494 -399 -1470 17 -1920 98 -107 159 -74 94 51
-265 514 -287 1135 -59 1684 115 279 93 360 -52 185z"/>
<path d="M5205 1763 c-53 -33 -25 -692 30 -699 l45 -7 0 362 c0 369 -5 389
-75 344z"/>
<path d="M5453 1767 c-39 -39 -13 -707 27 -707 39 0 40 13 40 360 0 355 -9
404 -67 347z"/>
<path d="M1320 1700 c0 -51 8 -60 50 -60 42 0 50 9 50 60 0 51 -8 60 -50 60
-42 0 -50 -9 -50 -60z"/>
<path d="M4940 1700 c0 -51 8 -60 50 -60 42 0 50 9 50 60 0 51 -8 60 -50 60
-42 0 -50 -9 -50 -60z"/>
<path d="M760 1418 c-60 -178 -113 -331 -117 -340 -3 -10 16 -18 43 -18 41 0
53 15 74 91 l26 91 142 -6 142 -6 27 -85 c22 -70 36 -85 77 -85 27 0 46 7 43
16 -4 9 -56 162 -117 340 -109 322 -110 324 -170 324 -60 0 -61 -2 -170 -322z
m229 74 c28 -92 51 -172 51 -177 0 -5 -49 -9 -110 -9 -60 0 -110 5 -110 11 0
24 102 343 109 343 5 0 32 -76 60 -168z"/>
<path d="M2520 1554 c0 -103 -6 -258 -13 -343 l-13 -155 48 7 c47 7 48 11 58
272 l10 266 80 -221 c79 -216 81 -220 143 -220 62 0 64 3 140 220 l77 221 10
-266 c10 -261 11 -265 58 -272 l48 -7 -13 197 c-7 108 -13 263 -13 343 l0 147
-62 -7 c-60 -6 -65 -15 -152 -252 -50 -135 -94 -243 -97 -240 -3 4 -46 114
-95 246 -86 232 -91 240 -152 246 l-62 7 0 -189z"/>
<path d="M2160 1518 l0 -161 -67 41 c-79 49 -113 53 -113 14 0 -15 27 -38 60
-52 89 -37 91 -56 11 -94 -68 -32 -91 -72 -54 -94 9 -6 49 12 90 40 l73 49 0
-102 c0 -133 47 -126 56 8 l6 93 73 -50 c52 -35 80 -43 94 -28 21 21 -12 56
-102 111 -34 20 -30 25 38 58 41 20 75 48 75 63 0 37 -35 32 -113 -16 l-67
-41 0 161 c0 131 -6 162 -30 162 -24 0 -30 -31 -30 -162z"/>
<path d="M3315 1567 c-88 -25 -38 -86 61 -74 110 13 164 -21 164 -104 0 -46
-7 -49 -106 -49 -116 0 -163 -25 -180 -97 -33 -138 100 -231 229 -161 30 16
47 16 63 0 60 -60 74 -23 74 186 0 276 -88 362 -305 299z m221 -341 c8 -52
-54 -91 -132 -82 -67 7 -91 106 -30 122 83 23 156 5 162 -40z"/>
<path d="M3885 1538 c-56 -36 -65 -37 -65 -10 0 19 -17 32 -40 32 -38 0 -40
-13 -40 -251 0 -250 0 -252 45 -245 42 6 45 17 51 180 6 173 6 174 73 215 53
33 87 126 44 121 -2 -1 -32 -19 -68 -42z"/>
<path d="M4120 1566 c-139 -49 -107 -226 52 -283 155 -55 145 -133 -17 -132
-94 0 -115 -6 -115 -33 0 -42 40 -58 147 -58 213 0 254 228 52 288 -170 50
-166 160 6 149 84 -6 106 -1 111 25 9 48 -144 77 -236 44z"/>
<path d="M4558 1559 c-100 -39 -143 -340 -63 -437 65 -80 325 -82 325 -3 0 34
-12 37 -113 26 -120 -12 -167 15 -167 99 0 32 19 36 150 36 l150 0 0 89 c0
155 -135 246 -282 190z m171 -90 c69 -70 40 -109 -79 -109 -95 0 -110 5 -110
39 0 52 53 101 110 101 26 0 61 -14 79 -31z"/>
<path d="M5727 1560 c-108 -43 -156 -336 -72 -438 65 -80 325 -82 325 -3 0 34
-12 37 -113 26 -120 -12 -167 15 -167 99 0 32 19 36 153 36 l152 0 -10 104
c-15 160 -127 233 -268 176z m172 -99 c45 -82 28 -101 -89 -101 -95 0 -110 5
-110 39 0 93 157 142 199 62z"/>
<path d="M1320 1309 c0 -245 1 -252 42 -245 68 10 71 496 3 496 -44 0 -45 -4
-45 -251z"/>
<path d="M1584 1441 l83 -120 -79 -115 c-100 -149 -99 -146 -45 -146 34 0 63
26 106 93 65 103 52 106 157 -42 31 -44 114 -73 114 -39 0 6 -37 64 -82 128
l-82 117 83 121 c81 120 82 122 34 122 -37 0 -64 -23 -106 -89 l-56 -89 -56
89 c-41 66 -68 89 -104 89 -48 0 -48 -2 33 -119z"/>
<path d="M4940 1309 c0 -250 0 -252 45 -245 44 6 45 14 51 251 l5 245 -50 0
-51 0 0 -251z"/>
<path d="M5435 997 c-30 -11 -55 -34 -55 -51 0 -19 11 -26 32 -18 17 7 54 18
81 24 27 7 46 22 42 34 -11 31 -37 34 -100 11z"/>
<path d="M4976 935 c-4 -29 -22 -47 -51 -51 -25 -4 -45 -20 -45 -35 0 -18 17
-27 45 -24 44 5 45 1 38 -155 -9 -238 44 -322 177 -280 59 19 39 58 -31 59
l-59 1 -6 197 -5 197 60 -14 c48 -10 61 -6 61 18 0 22 -19 32 -60 32 -51 0
-60 8 -60 50 0 63 -55 67 -64 5z"/>
<path d="M2415 871 c-41 -14 -75 -18 -75 -9 0 10 -13 18 -30 18 -25 0 -30 -40
-30 -240 0 -200 5 -240 30 -240 25 0 30 34 30 189 0 210 3 215 144 241 93 18
103 -12 93 -260 -6 -151 -3 -170 28 -170 31 0 35 24 35 217 0 283 -35 322
-225 254z"/>
<path d="M2780 840 c0 -40 10 -60 30 -60 20 0 30 20 30 60 0 40 -10 60 -30 60
-20 0 -30 -20 -30 -60z"/>
<path d="M3507 852 c-111 -95 -88 -387 35 -453 61 -32 258 -6 258 34 0 24 -19
28 -105 17 -124 -15 -168 10 -187 105 l-13 65 153 0 152 0 0 99 c0 166 -166
242 -293 133z m209 -36 c73 -73 29 -136 -96 -136 -132 0 -152 26 -89 116 35
49 144 61 185 20z"/>
<path d="M4085 860 c-79 -48 -85 -49 -85 -10 0 17 -13 30 -30 30 -25 0 -30
-40 -30 -240 0 -225 2 -240 39 -240 37 0 38 11 27 169 l-12 168 68 41 c37 23
76 44 85 48 10 3 14 21 10 40 -6 31 -12 31 -72 -6z"/>
<path d="M4304 869 c-105 -74 -52 -212 99 -255 163 -48 123 -188 -47 -165
-119 15 -142 -39 -26 -60 277 -52 334 205 64 291 -139 44 -102 151 51 148 80
-2 115 5 115 23 0 56 -183 69 -256 18z"/>
<path d="M4700 840 c0 -40 10 -60 30 -60 20 0 30 20 30 60 0 40 -10 60 -30 60
-20 0 -30 -20 -30 -60z"/>
<path d="M5360 886 c-85 -32 -100 -68 -100 -246 0 -186 15 -219 117 -250 73
-22 223 7 223 43 0 25 -17 28 -98 17 -132 -18 -182 10 -182 101 l0 69 150 0
150 0 0 69 c0 160 -118 249 -260 197z m156 -71 c11 -14 27 -50 35 -80 l13 -55
-122 0 c-122 0 -122 0 -122 59 0 88 141 142 196 76z"/>
<path d="M1740 663 c0 -284 30 -320 217 -254 46 16 83 21 83 10 0 -10 14 -19
30 -19 25 0 30 40 30 240 0 197 -5 240 -29 240 -24 0 -31 -40 -35 -194 l-6
-194 -90 -26 c-137 -40 -140 -35 -140 203 0 174 -5 211 -30 211 -25 0 -30 -37
-30 -217z"/>
<path d="M2968 846 c177 -557 203 -574 328 -207 71 211 77 241 47 241 -27 0
-51 -50 -103 -210 -37 -115 -72 -205 -77 -200 -5 5 -37 97 -72 205 -46 141
-73 197 -99 202 -27 5 -33 -2 -24 -31z"/>
<path d="M2780 560 c0 -129 6 -160 30 -160 24 0 30 31 30 160 0 129 -6 160
-30 160 -24 0 -30 -31 -30 -160z"/>
<path d="M4700 560 c0 -129 6 -160 30 -160 24 0 30 31 30 160 0 129 -6 160
-30 160 -24 0 -30 -31 -30 -160z"/>
<path d="M1760 175 c0 -14 -6 -61 -13 -105 -8 -55 -6 -74 8 -60 31 30 53 190
27 190 -12 0 -22 -11 -22 -25z"/>
<path d="M3648 173 c-7 -18 -29 -33 -50 -33 -21 0 -38 -11 -38 -25 0 -14 -6
-45 -13 -70 -10 -39 -4 -45 48 -45 56 0 61 6 74 92 14 93 2 140 -21 81z m-8
-81 c0 -15 -13 -38 -30 -52 -31 -26 -47 36 -17 67 23 22 47 15 47 -15z"/>
<path d="M4653 107 c-12 -85 -6 -127 15 -105 20 20 35 198 17 198 -11 0 -25
-42 -32 -93z"/>
<path d="M4800 175 c0 -14 -6 -61 -13 -105 -8 -53 -6 -73 8 -60 29 29 50 190
25 190 -11 0 -20 -11 -20 -25z"/>
<path d="M2249 155 c-32 -35 -11 -155 28 -155 25 1 27 5 7 17 -27 17 -13 82
25 108 14 9 12 14 -5 15 -15 0 -21 9 -14 20 17 27 -15 24 -41 -5z"/>
<path d="M2759 165 c-1 -8 -5 -49 -9 -90 -7 -67 -3 -75 36 -73 24 0 33 6 19
11 -35 14 -31 86 4 100 26 9 26 15 2 39 -31 31 -50 36 -52 13z"/>
<path d="M1893 127 c-7 -8 -12 -41 -11 -75 l1 -62 29 65 c36 83 64 84 52 2 -7
-43 -2 -58 13 -49 46 29 27 132 -24 132 -25 0 -52 -6 -60 -13z"/>
<path d="M2096 70 c-9 -78 13 -95 31 -25 17 64 16 95 -5 95 -10 0 -21 -31 -26
-70z"/>
<path d="M2396 70 c-8 -72 10 -94 32 -38 18 46 15 108 -6 108 -10 0 -21 -31
-26 -70z"/>
<path d="M2540 115 c0 -14 -6 -45 -13 -70 -10 -40 -4 -45 51 -45 48 0 62 9 62
38 0 21 5 53 12 70 10 25 -1 32 -50 32 -36 0 -62 -10 -62 -25z m80 -23 c0 -15
-13 -38 -30 -52 -31 -26 -47 36 -17 67 23 22 47 15 47 -15z"/>
<path d="M2912 77 c-11 -58 -3 -96 16 -75 19 21 33 138 16 138 -10 0 -25 -28
-32 -63z"/>
<path d="M3047 95 c7 -25 13 -56 13 -70 0 -45 38 -26 69 34 35 67 38 81 15 81
-9 0 -26 -25 -38 -55 l-22 -55 -2 55 c-1 30 -12 55 -24 55 -14 0 -18 -18 -11
-45z"/>
<path d="M3239 88 c-10 -28 -14 -60 -8 -70 15 -24 89 -23 89 1 0 11 -13 15
-30 8 -16 -6 -30 -2 -30 9 0 10 18 24 40 30 53 14 52 74 0 74 -26 0 -48 -20
-61 -52z"/>
<path d="M3892 108 c-27 -70 -13 -108 38 -108 28 0 50 9 50 19 0 11 -13 15
-30 8 -16 -6 -30 -2 -30 10 0 11 18 26 40 33 22 7 40 26 40 41 0 40 -93 37
-108 -3z"/>
<path d="M4094 100 c6 -22 0 -54 -14 -70 -30 -36 1 -41 36 -6 19 19 24 19 24
0 0 -13 8 -24 18 -24 10 0 14 18 8 40 -6 22 0 54 14 70 30 36 -1 41 -36 6 -19
-19 -24 -19 -24 0 0 13 -8 24 -18 24 -10 0 -14 -18 -8 -40z"/>
<path d="M4279 88 c-24 -63 -10 -89 47 -86 34 2 36 5 9 12 -50 13 -43 84 10
105 l45 18 -45 2 c-32 1 -52 -15 -66 -51z"/>
<path d="M4459 88 c-10 -28 -14 -60 -8 -70 15 -24 89 -23 89 1 0 11 -13 15
-30 8 -16 -6 -30 -2 -30 9 0 10 18 24 40 30 53 14 52 74 0 74 -26 0 -48 -20
-61 -52z"/>
<path d="M4930 115 c-25 -76 -19 -105 25 -111 25 -4 45 3 45 14 0 11 -13 16
-30 9 -16 -6 -30 -2 -30 9 0 10 18 24 40 30 53 14 52 74 -1 74 -22 0 -44 -11
-49 -25z"/>
<path d="M5120 115 c0 -14 -6 -45 -13 -70 -7 -27 -3 -45 11 -45 12 0 22 22 22
48 0 26 15 53 33 60 27 11 30 3 20 -48 -7 -34 -4 -60 8 -60 10 0 19 11 19 25
0 14 6 45 13 70 10 40 4 45 -51 45 -36 0 -62 -10 -62 -25z"/>
<path d="M5333 127 c-33 -33 -13 -127 27 -127 22 0 40 9 40 19 0 11 -12 15
-27 9 -21 -8 -25 3 -18 40 5 27 24 54 42 59 24 6 22 9 -9 11 -23 1 -47 -4 -55
-11z"/>
<path d="M5512 108 c-27 -70 -13 -108 38 -108 28 0 50 8 50 18 0 10 -20 14
-45 9 -44 -10 -44 -9 -6 22 21 17 46 31 55 31 9 0 16 14 16 30 0 41 -92 39
-108 -2z"/>
</g>
</svg>
